<mxfile host="app.diagrams.net" modified="2024-07-22T13:28:05.141Z" agent="Mozilla/5.0 (X11; Linux x86_64; rv:127.0) Gecko/20100101 Firefox/127.0" etag="XlbhxtJSYDQkhPrA2vSU" version="24.7.1" type="github">
  <diagram name="Page-1" id="Ocsk_W6i3ChqtIhvXLAU">
    <mxGraphModel dx="1434" dy="744" grid="1" gridSize="10" guides="1" tooltips="1" connect="1" arrows="1" fold="1" page="1" pageScale="1" pageWidth="827" pageHeight="1169" math="0" shadow="0">
      <root>
        <mxCell id="0" />
        <mxCell id="1" parent="0" />
        <mxCell id="mhlBp4qg8b1yMp5WnhkX-1" value="&lt;div&gt;&lt;b&gt;CryptoAttribute &lt;/b&gt;&lt;br&gt;&lt;/div&gt;&lt;div&gt;id =szCPOID_RSA_SMIMEaaSigningCertificateV2&lt;br&gt;&lt;/div&gt;" style="html=1;dashed=0;whiteSpace=wrap;" vertex="1" parent="1">
          <mxGeometry x="210" y="70" width="420" height="50" as="geometry" />
        </mxCell>
        <mxCell id="mhlBp4qg8b1yMp5WnhkX-3" value="&lt;div&gt;AsnObj&amp;nbsp;&lt;/div&gt;&lt;div&gt;(SEQUENCE : 1el )&lt;/div&gt;" style="html=1;dashed=0;whiteSpace=wrap;" vertex="1" parent="1">
          <mxGeometry x="360" y="170" width="140" height="50" as="geometry" />
        </mxCell>
        <mxCell id="mhlBp4qg8b1yMp5WnhkX-5" value="&lt;div&gt;AsnObj&lt;/div&gt;&lt;div&gt;&lt;div&gt;(SEQUENCE : 1el )&lt;/div&gt;&lt;/div&gt;" style="html=1;dashed=0;whiteSpace=wrap;" vertex="1" parent="1">
          <mxGeometry x="360" y="280" width="140" height="50" as="geometry" />
        </mxCell>
        <mxCell id="mhlBp4qg8b1yMp5WnhkX-6" value="" style="endArrow=classic;html=1;rounded=0;exitX=0.479;exitY=1.04;exitDx=0;exitDy=0;exitPerimeter=0;entryX=0.5;entryY=0;entryDx=0;entryDy=0;" edge="1" parent="1" source="mhlBp4qg8b1yMp5WnhkX-1" target="mhlBp4qg8b1yMp5WnhkX-3">
          <mxGeometry width="50" height="50" relative="1" as="geometry">
            <mxPoint x="360" y="350" as="sourcePoint" />
            <mxPoint x="410" y="300" as="targetPoint" />
          </mxGeometry>
        </mxCell>
        <mxCell id="mhlBp4qg8b1yMp5WnhkX-7" value="" style="endArrow=classic;html=1;rounded=0;entryX=0.5;entryY=0;entryDx=0;entryDy=0;" edge="1" parent="1" source="mhlBp4qg8b1yMp5WnhkX-3" target="mhlBp4qg8b1yMp5WnhkX-5">
          <mxGeometry width="50" height="50" relative="1" as="geometry">
            <mxPoint x="360" y="350" as="sourcePoint" />
            <mxPoint x="410" y="300" as="targetPoint" />
          </mxGeometry>
        </mxCell>
        <mxCell id="mhlBp4qg8b1yMp5WnhkX-8" value="[0]" style="text;html=1;align=center;verticalAlign=middle;resizable=0;points=[];autosize=1;strokeColor=none;fillColor=none;" vertex="1" parent="1">
          <mxGeometry x="441" y="228" width="40" height="30" as="geometry" />
        </mxCell>
        <mxCell id="mhlBp4qg8b1yMp5WnhkX-9" value="AsnObj&lt;br&gt;&lt;div&gt;&lt;div&gt;(SEQUENCE : 3el )&lt;/div&gt;&lt;/div&gt;" style="html=1;dashed=0;whiteSpace=wrap;" vertex="1" parent="1">
          <mxGeometry x="360" y="380" width="140" height="50" as="geometry" />
        </mxCell>
        <mxCell id="mhlBp4qg8b1yMp5WnhkX-13" value="" style="endArrow=classic;html=1;rounded=0;entryX=0.5;entryY=0;entryDx=0;entryDy=0;exitX=0.5;exitY=1;exitDx=0;exitDy=0;" edge="1" parent="1" source="mhlBp4qg8b1yMp5WnhkX-5" target="mhlBp4qg8b1yMp5WnhkX-9">
          <mxGeometry width="50" height="50" relative="1" as="geometry">
            <mxPoint x="440" y="230" as="sourcePoint" />
            <mxPoint x="440" y="290" as="targetPoint" />
          </mxGeometry>
        </mxCell>
        <mxCell id="mhlBp4qg8b1yMp5WnhkX-14" value="[0]" style="text;html=1;align=center;verticalAlign=middle;resizable=0;points=[];autosize=1;strokeColor=none;fillColor=none;" vertex="1" parent="1">
          <mxGeometry x="441" y="340" width="40" height="30" as="geometry" />
        </mxCell>
        <mxCell id="mhlBp4qg8b1yMp5WnhkX-16" value="&lt;div&gt;AsnObj&lt;/div&gt;&lt;div&gt;&lt;div&gt;(SEQUENCE : 1el )&lt;/div&gt;&lt;/div&gt;" style="html=1;dashed=0;whiteSpace=wrap;" vertex="1" parent="1">
          <mxGeometry x="100" y="470" width="140" height="50" as="geometry" />
        </mxCell>
        <mxCell id="mhlBp4qg8b1yMp5WnhkX-17" value="" style="endArrow=classic;html=1;rounded=0;entryX=0.443;entryY=0;entryDx=0;entryDy=0;entryPerimeter=0;exitX=0.5;exitY=1;exitDx=0;exitDy=0;" edge="1" parent="1" source="mhlBp4qg8b1yMp5WnhkX-9" target="mhlBp4qg8b1yMp5WnhkX-16">
          <mxGeometry width="50" height="50" relative="1" as="geometry">
            <mxPoint x="340" y="440" as="sourcePoint" />
            <mxPoint x="390" y="390" as="targetPoint" />
          </mxGeometry>
        </mxCell>
        <mxCell id="mhlBp4qg8b1yMp5WnhkX-18" value="[0]" style="text;html=1;align=center;verticalAlign=middle;resizable=0;points=[];autosize=1;strokeColor=none;fillColor=none;" vertex="1" parent="1">
          <mxGeometry x="250" y="420" width="40" height="30" as="geometry" />
        </mxCell>
        <mxCell id="mhlBp4qg8b1yMp5WnhkX-20" value="" style="endArrow=classic;html=1;rounded=0;exitX=0.5;exitY=1;exitDx=0;exitDy=0;" edge="1" parent="1" source="mhlBp4qg8b1yMp5WnhkX-16" target="mhlBp4qg8b1yMp5WnhkX-21">
          <mxGeometry width="50" height="50" relative="1" as="geometry">
            <mxPoint x="340" y="530" as="sourcePoint" />
            <mxPoint x="390" y="480" as="targetPoint" />
          </mxGeometry>
        </mxCell>
        <mxCell id="mhlBp4qg8b1yMp5WnhkX-21" value="OID" style="shape=ellipse;html=1;dashed=0;whiteSpace=wrap;aspect=fixed;perimeter=ellipsePerimeter;" vertex="1" parent="1">
          <mxGeometry x="95" y="580" width="70" height="70" as="geometry" />
        </mxCell>
        <mxCell id="mhlBp4qg8b1yMp5WnhkX-23" value="String 32 b" style="shape=ellipse;html=1;dashed=0;whiteSpace=wrap;aspect=fixed;perimeter=ellipsePerimeter;" vertex="1" parent="1">
          <mxGeometry x="250" y="580" width="70" height="70" as="geometry" />
        </mxCell>
        <mxCell id="mhlBp4qg8b1yMp5WnhkX-24" value="" style="endArrow=classic;html=1;rounded=0;entryX=0.5;entryY=0;entryDx=0;entryDy=0;exitX=0.5;exitY=1;exitDx=0;exitDy=0;" edge="1" parent="1" source="mhlBp4qg8b1yMp5WnhkX-9" target="mhlBp4qg8b1yMp5WnhkX-23">
          <mxGeometry width="50" height="50" relative="1" as="geometry">
            <mxPoint x="340" y="470" as="sourcePoint" />
            <mxPoint x="390" y="420" as="targetPoint" />
          </mxGeometry>
        </mxCell>
        <mxCell id="mhlBp4qg8b1yMp5WnhkX-25" value="[1]" style="text;html=1;align=center;verticalAlign=middle;resizable=0;points=[];autosize=1;strokeColor=none;fillColor=none;" vertex="1" parent="1">
          <mxGeometry x="310" y="490" width="40" height="30" as="geometry" />
        </mxCell>
        <mxCell id="mhlBp4qg8b1yMp5WnhkX-26" value="&lt;div&gt;AsnObj&lt;/div&gt;&lt;div&gt;&lt;div&gt;(SEQUENCE : 1el )&lt;/div&gt;&lt;/div&gt;" style="html=1;dashed=0;whiteSpace=wrap;" vertex="1" parent="1">
          <mxGeometry x="530" y="450" width="140" height="50" as="geometry" />
        </mxCell>
        <mxCell id="mhlBp4qg8b1yMp5WnhkX-27" value="" style="endArrow=classic;html=1;rounded=0;entryX=0.5;entryY=0;entryDx=0;entryDy=0;exitX=1;exitY=0.5;exitDx=0;exitDy=0;" edge="1" parent="1" source="mhlBp4qg8b1yMp5WnhkX-9" target="mhlBp4qg8b1yMp5WnhkX-26">
          <mxGeometry width="50" height="50" relative="1" as="geometry">
            <mxPoint x="340" y="440" as="sourcePoint" />
            <mxPoint x="390" y="390" as="targetPoint" />
          </mxGeometry>
        </mxCell>
        <mxCell id="mhlBp4qg8b1yMp5WnhkX-28" value="[2]" style="text;html=1;align=center;verticalAlign=middle;resizable=0;points=[];autosize=1;strokeColor=none;fillColor=none;" vertex="1" parent="1">
          <mxGeometry x="550" y="400" width="40" height="30" as="geometry" />
        </mxCell>
        <mxCell id="mhlBp4qg8b1yMp5WnhkX-29" value="String 32 b" style="shape=ellipse;html=1;dashed=0;whiteSpace=wrap;aspect=fixed;perimeter=ellipsePerimeter;" vertex="1" parent="1">
          <mxGeometry x="710" y="570" width="70" height="70" as="geometry" />
        </mxCell>
        <mxCell id="mhlBp4qg8b1yMp5WnhkX-30" value="" style="endArrow=classic;html=1;rounded=0;exitX=0.443;exitY=1.02;exitDx=0;exitDy=0;exitPerimeter=0;entryX=0.643;entryY=0;entryDx=0;entryDy=0;entryPerimeter=0;" edge="1" parent="1" source="mhlBp4qg8b1yMp5WnhkX-26" target="mhlBp4qg8b1yMp5WnhkX-29">
          <mxGeometry width="50" height="50" relative="1" as="geometry">
            <mxPoint x="340" y="560" as="sourcePoint" />
            <mxPoint x="390" y="510" as="targetPoint" />
          </mxGeometry>
        </mxCell>
        <mxCell id="mhlBp4qg8b1yMp5WnhkX-31" value="[0]" style="text;html=1;align=center;verticalAlign=middle;resizable=0;points=[];autosize=1;strokeColor=none;fillColor=none;" vertex="1" parent="1">
          <mxGeometry x="500" y="510" width="40" height="30" as="geometry" />
        </mxCell>
        <mxCell id="mhlBp4qg8b1yMp5WnhkX-33" value="[1]" style="text;html=1;align=center;verticalAlign=middle;resizable=0;points=[];autosize=1;strokeColor=none;fillColor=none;" vertex="1" parent="1">
          <mxGeometry x="690" y="510" width="40" height="30" as="geometry" />
        </mxCell>
        <mxCell id="mhlBp4qg8b1yMp5WnhkX-34" value="&lt;div&gt;AsnObj&lt;/div&gt;&lt;div&gt;&lt;div&gt;(SEQUENCE : 1el )&lt;/div&gt;&lt;/div&gt;" style="html=1;dashed=0;whiteSpace=wrap;" vertex="1" parent="1">
          <mxGeometry x="414" y="570" width="140" height="50" as="geometry" />
        </mxCell>
        <mxCell id="mhlBp4qg8b1yMp5WnhkX-35" value="" style="endArrow=classic;html=1;rounded=0;exitX=0.5;exitY=1;exitDx=0;exitDy=0;entryX=0.5;entryY=0;entryDx=0;entryDy=0;" edge="1" parent="1" source="mhlBp4qg8b1yMp5WnhkX-26" target="mhlBp4qg8b1yMp5WnhkX-34">
          <mxGeometry width="50" height="50" relative="1" as="geometry">
            <mxPoint x="340" y="560" as="sourcePoint" />
            <mxPoint x="390" y="510" as="targetPoint" />
          </mxGeometry>
        </mxCell>
        <mxCell id="mhlBp4qg8b1yMp5WnhkX-37" value="Issuer" style="shape=ellipse;html=1;dashed=0;whiteSpace=wrap;aspect=fixed;perimeter=ellipsePerimeter;" vertex="1" parent="1">
          <mxGeometry x="441" y="680" width="70" height="70" as="geometry" />
        </mxCell>
        <mxCell id="mhlBp4qg8b1yMp5WnhkX-38" value="" style="endArrow=classic;html=1;rounded=0;entryX=0.5;entryY=0;entryDx=0;entryDy=0;exitX=0.5;exitY=1;exitDx=0;exitDy=0;" edge="1" parent="1" source="mhlBp4qg8b1yMp5WnhkX-34" target="mhlBp4qg8b1yMp5WnhkX-37">
          <mxGeometry width="50" height="50" relative="1" as="geometry">
            <mxPoint x="340" y="620" as="sourcePoint" />
            <mxPoint x="390" y="570" as="targetPoint" />
          </mxGeometry>
        </mxCell>
        <mxCell id="mhlBp4qg8b1yMp5WnhkX-39" value="This is a structure for the Certificate2 CryptoAttribute ASN1 object (for CADES_BES)" style="text;html=1;align=center;verticalAlign=middle;resizable=0;points=[];autosize=1;strokeColor=none;fillColor=none;" vertex="1" parent="1">
          <mxGeometry x="185" y="28" width="490" height="30" as="geometry" />
        </mxCell>
      </root>
    </mxGraphModel>
  </diagram>
</mxfile>
